<svg width="32" height="32" viewBox="0 0 32 32" fill="none" xmlns="http://www.w3.org/2000/svg">
<path d="M1.99609 4.96875V27.0312H30.0023V4.96875H1.99609ZM28.6273 25.6562H3.37109V25.2938L9.42109 19.2437L13.1336 22.9562L13.4867 23.3094L13.8398 22.9562L23.9336 12.8625L28.6273 17.5562V25.6562ZM28.6273 16.8469L23.9336 12.1531L13.4867 22.6031L9.42109 18.5344L3.37109 24.5844V6.34375H28.6273V16.8469Z" fill="#39393A"/>
<path d="M9.58516 13.9672C8.22266 13.9672 7.11328 12.8578 7.11328 11.4953C7.11328 10.1328 8.22266 9.02344 9.58516 9.02344C10.9477 9.02344 12.057 10.1328 12.057 11.4953C12.057 12.8578 10.9477 13.9672 9.58516 13.9672ZM9.58516 9.52344C8.49766 9.52344 7.61328 10.4078 7.61328 11.4953C7.61328 12.5828 8.49766 13.4672 9.58516 13.4672C10.6727 13.4672 11.557 12.5828 11.557 11.4953C11.557 10.4078 10.6727 9.52344 9.58516 9.52344Z" fill="#E73B37"/>
<path d="M9.25781 7.88281C9.25781 7.96569 9.29074 8.04518 9.34934 8.10378C9.40795 8.16239 9.48743 8.19531 9.57031 8.19531C9.65319 8.19531 9.73268 8.16239 9.79128 8.10378C9.84989 8.04518 9.88281 7.96569 9.88281 7.88281C9.88281 7.79993 9.84989 7.72045 9.79128 7.66184C9.73268 7.60324 9.65319 7.57031 9.57031 7.57031C9.48743 7.57031 9.40795 7.60324 9.34934 7.66184C9.29074 7.72045 9.25781 7.79993 9.25781 7.88281Z" fill="#E73B37"/>
<path d="M7.45703 8.375C7.45703 8.45788 7.48996 8.53737 7.54856 8.59597C7.60717 8.65458 7.68665 8.6875 7.76953 8.6875C7.85241 8.6875 7.9319 8.65458 7.9905 8.59597C8.04911 8.53737 8.08203 8.45788 8.08203 8.375C8.08203 8.29212 8.04911 8.21263 7.9905 8.15403C7.9319 8.09542 7.85241 8.0625 7.76953 8.0625C7.68665 8.0625 7.60717 8.09542 7.54856 8.15403C7.48996 8.21263 7.45703 8.29212 7.45703 8.375Z" fill="#E73B37"/>
<path d="M6.13672 9.70312C6.13672 9.78601 6.16964 9.86549 6.22825 9.9241C6.28685 9.9827 6.36634 10.0156 6.44922 10.0156C6.5321 10.0156 6.61158 9.9827 6.67019 9.9241C6.72879 9.86549 6.76172 9.78601 6.76172 9.70312C6.76172 9.62024 6.72879 9.54076 6.67019 9.48215C6.61158 9.42355 6.5321 9.39063 6.44922 9.39062C6.36634 9.39063 6.28685 9.42355 6.22825 9.48215C6.16964 9.54076 6.13672 9.62024 6.13672 9.70312Z" fill="#E73B37"/>
<path d="M5.66016 11.5078C5.66016 11.5907 5.69308 11.6702 5.75169 11.7288C5.81029 11.7874 5.88978 11.8203 5.97266 11.8203C6.05554 11.8203 6.13502 11.7874 6.19363 11.7288C6.25223 11.6702 6.28516 11.5907 6.28516 11.5078C6.28516 11.4249 6.25223 11.3454 6.19363 11.2868C6.13502 11.2282 6.05554 11.1953 5.97266 11.1953C5.88978 11.1953 5.81029 11.2282 5.75169 11.2868C5.69308 11.3454 5.66016 11.4249 5.66016 11.5078Z" fill="#E73B37"/>
<path d="M6.14844 13.3125C6.14844 13.3954 6.18136 13.4749 6.23997 13.5335C6.29857 13.5921 6.37806 13.625 6.46094 13.625C6.54382 13.625 6.6233 13.5921 6.68191 13.5335C6.74051 13.4749 6.77344 13.3954 6.77344 13.3125C6.77344 13.2296 6.74051 13.1501 6.68191 13.0915C6.6233 13.0329 6.54382 13 6.46094 13C6.37806 13 6.29857 13.0329 6.23997 13.0915C6.18136 13.1501 6.14844 13.2296 6.14844 13.3125Z" fill="#E73B37"/>
<path d="M7.47656 14.625C7.47656 14.7079 7.50949 14.7874 7.56809 14.846C7.6267 14.9046 7.70618 14.9375 7.78906 14.9375C7.87194 14.9375 7.95143 14.9046 8.01003 14.846C8.06864 14.7874 8.10156 14.7079 8.10156 14.625C8.10156 14.5421 8.06864 14.4626 8.01003 14.404C7.95143 14.3454 7.87194 14.3125 7.78906 14.3125C7.70618 14.3125 7.6267 14.3454 7.56809 14.404C7.50949 14.4626 7.47656 14.5421 7.47656 14.625Z" fill="#E73B37"/>
<path d="M9.28125 15.1016C9.28125 15.1844 9.31417 15.2639 9.37278 15.3225C9.43138 15.3811 9.51087 15.4141 9.59375 15.4141C9.67663 15.4141 9.75612 15.3811 9.81472 15.3225C9.87333 15.2639 9.90625 15.1844 9.90625 15.1016C9.90625 15.0187 9.87333 14.9392 9.81472 14.8806C9.75612 14.822 9.67663 14.7891 9.59375 14.7891C9.51087 14.7891 9.43138 14.822 9.37278 14.8806C9.31417 14.9392 9.28125 15.0187 9.28125 15.1016Z" fill="#E73B37"/>
<path d="M11.0859 14.6172C11.0859 14.7001 11.1189 14.7796 11.1775 14.8382C11.2361 14.8968 11.3156 14.9297 11.3984 14.9297C11.4813 14.9297 11.5608 14.8968 11.6194 14.8382C11.678 14.7796 11.7109 14.7001 11.7109 14.6172C11.7109 14.5343 11.678 14.4548 11.6194 14.3962C11.5608 14.3376 11.4813 14.3047 11.3984 14.3047C11.3156 14.3047 11.2361 14.3376 11.1775 14.3962C11.1189 14.4548 11.0859 14.5343 11.0859 14.6172Z" fill="#E73B37"/>
<path d="M12.4023 13.2891C12.4023 13.3719 12.4353 13.4514 12.4939 13.51C12.5525 13.5686 12.632 13.6016 12.7148 13.6016C12.7977 13.6016 12.8772 13.5686 12.9358 13.51C12.9944 13.4514 13.0273 13.3719 13.0273 13.2891C13.0273 13.2062 12.9944 13.1267 12.9358 13.0681C12.8772 13.0095 12.7977 12.9766 12.7148 12.9766C12.632 12.9766 12.5525 13.0095 12.4939 13.0681C12.4353 13.1267 12.4023 13.2062 12.4023 13.2891Z" fill="#E73B37"/>
<path d="M12.8828 11.4844C12.8828 11.5673 12.9157 11.6467 12.9743 11.7053C13.0329 11.764 13.1124 11.7969 13.1953 11.7969C13.2782 11.7969 13.3577 11.764 13.4163 11.7053C13.4749 11.6467 13.5078 11.5673 13.5078 11.4844C13.5078 11.4015 13.4749 11.322 13.4163 11.2634C13.3577 11.2048 13.2782 11.1719 13.1953 11.1719C13.1124 11.1719 13.0329 11.2048 12.9743 11.2634C12.9157 11.322 12.8828 11.4015 12.8828 11.4844Z" fill="#E73B37"/>
<path d="M12.3906 9.67969C12.3906 9.76257 12.4235 9.84205 12.4822 9.90066C12.5408 9.95926 12.6202 9.99219 12.7031 9.99219C12.786 9.99219 12.8655 9.95926 12.9241 9.90066C12.9827 9.84205 13.0156 9.76257 13.0156 9.67969C13.0156 9.59681 12.9827 9.51732 12.9241 9.45872C12.8655 9.40011 12.786 9.36719 12.7031 9.36719C12.6202 9.36719 12.5408 9.40011 12.4822 9.45872C12.4235 9.51732 12.3906 9.59681 12.3906 9.67969Z" fill="#E73B37"/>
<path d="M11.0664 8.35938C11.0664 8.44226 11.0993 8.52174 11.1579 8.58035C11.2165 8.63895 11.296 8.67187 11.3789 8.67188C11.4618 8.67187 11.5413 8.63895 11.5999 8.58035C11.6585 8.52174 11.6914 8.44226 11.6914 8.35938C11.6914 8.27649 11.6585 8.19701 11.5999 8.1384C11.5413 8.0798 11.4618 8.04688 11.3789 8.04688C11.296 8.04688 11.2165 8.0798 11.1579 8.1384C11.0993 8.19701 11.0664 8.27649 11.0664 8.35938Z" fill="#E73B37"/>
</svg>
